<svg xmlns="http://www.w3.org/2000/svg" xmlns:xlink="http://www.w3.org/1999/xlink" fill="none" version="1.1" width="375" height="80" viewBox="0 0 375 80"><defs><linearGradient x1="0.5" y1="0" x2="0.5" y2="1" id="master_svg0_1_3470"><stop offset="15.999999642372131%" stop-color="#FFFFFF" stop-opacity="1"/><stop offset="95.55555582046509%" stop-color="#FFFFFF" stop-opacity="1"/></linearGradient><mask id="master_svg1_131_57376/1_11645" style="mask-type:alpha" maskUnits="objectBoundingBox"><g><rect x="0" y="0" width="375" height="80" rx="0" fill="url(#master_svg0_1_3470)" fill-opacity="1"/></g></mask><linearGradient x1="0.5" y1="0" x2="0.5" y2="1" id="master_svg2_1_11415"><stop offset="0%" stop-color="#218964" stop-opacity="1"/><stop offset="100%" stop-color="#60C297" stop-opacity="1"/></linearGradient><clipPath id="master_svg3_131_57376/1_11646"><rect x="0" y="-44" width="375" height="151" rx="0"/></clipPath><filter id="master_svg4_131_57376/1_11653" filterUnits="objectBoundingBox" color-interpolation-filters="sRGB" x="-2.015151515151515" y="-2.015151515151515" width="5.03030303030303" height="5.03030303030303"><feFlood flood-opacity="0" result="BackgroundImageFix"/><feBlend mode="normal" in="SourceGraphic" in2="BackgroundImageFix" result="shape"/><feGaussianBlur stdDeviation="66.5" result="effect1_foregroundBlur"/></filter><filter id="master_svg5_131_57376/1_11652" filterUnits="objectBoundingBox" color-interpolation-filters="sRGB" x="-0.22548060874706738" y="-0.6967358778352055" width="1.4509612174941346" height="2.393471755670411"><feFlood flood-opacity="0" result="BackgroundImageFix"/><feBlend mode="normal" in="SourceGraphic" in2="BackgroundImageFix" result="shape"/><feGaussianBlur stdDeviation="12" result="effect1_foregroundBlur"/></filter><linearGradient x1="0.5" y1="0" x2="0.024661776069108885" y2="0.7369866186261385" id="master_svg6_1_11431"><stop offset="4.285713285207748%" stop-color="#237048" stop-opacity="1"/><stop offset="50.683677196502686%" stop-color="#1C6540" stop-opacity="1"/><stop offset="51.74102187156677%" stop-color="#206942" stop-opacity="1"/><stop offset="100%" stop-color="#175D3A" stop-opacity="1"/></linearGradient><filter id="master_svg7_131_57376/1_11650" filterUnits="objectBoundingBox" color-interpolation-filters="sRGB" x="-0.18041785221653722" y="-0.25037210453768877" width="1.3608357044330743" height="1.5007442090753775"><feFlood flood-opacity="0" result="BackgroundImageFix"/><feBlend mode="normal" in="SourceGraphic" in2="BackgroundImageFix" result="shape"/><feGaussianBlur stdDeviation="10" result="effect1_foregroundBlur"/></filter><linearGradient x1="0.5379903316497803" y1="0.08276818692684174" x2="0.4650506260289475" y2="0.9972122986891258" id="master_svg8_1_11421"><stop offset="0%" stop-color="#77FF70" stop-opacity="0"/><stop offset="49.03096258640289%" stop-color="#1DB08B" stop-opacity="0.9800000190734863"/><stop offset="94.9999988079071%" stop-color="#1C6540" stop-opacity="0"/></linearGradient><linearGradient x1="0.6099841594696045" y1="0.17635808885097504" x2="0.30009010434150696" y2="1" id="master_svg9_1_3910"><stop offset="0%" stop-color="#FFF0B3" stop-opacity="1"/><stop offset="100%" stop-color="#FFFFFF" stop-opacity="0"/></linearGradient><radialGradient cx="0" cy="0" r="1" gradientUnits="userSpaceOnUse" id="master_svga_1_3913" gradientTransform="translate(96.43746344745159 8.012491434812546) rotate(134.27475250038805) scale(40.55790372856811 31.284985557168163)"><stop offset="0%" stop-color="#FFEFEF" stop-opacity="0.49000000953674316"/><stop offset="100%" stop-color="#FFEFEF" stop-opacity="0"/></radialGradient><linearGradient x1="0.5" y1="0" x2="0.5" y2="1.0034738779067993" id="master_svgb_1_11439"><stop offset="2.857142873108387%" stop-color="#226D48" stop-opacity="0"/><stop offset="100%" stop-color="#FFFFFF" stop-opacity="1"/></linearGradient></defs><g><g mask="url(#master_svg1_131_57376/1_11645)"><g><rect x="0" y="0" width="375" height="80" rx="0" fill="url(#master_svg2_1_11415)" fill-opacity="1"/></g><g clip-path="url(#master_svg3_131_57376/1_11646)"><g style="opacity:0.6000000238418579;" filter="url(#master_svg4_131_57376/1_11653)"><ellipse cx="8" cy="259" rx="66" ry="66" fill="#B6A222" fill-opacity="1"/></g><g transform="matrix(0.908821702003479,-0.4171847999095917,0.4171847999095917,0.908821702003479,-55.271074640960705,-13.272693647136634)" filter="url(#master_svg5_131_57376/1_11652)"><path d="M154.87898092651366,183.3114703125Q76.64498092651368,188.7022703125,28.51578092651367,188.7022703125C-19.613619073486326,188.7022703125,-58.00001907348633,158.7773703125,-58.00001907348633,149.9097703125C-58.00001907348633,141.0421703125,-19.888619073486325,119.8095703125,28.240780926513665,119.8095703125C81.10098092651367,128.6255303125,106.14198092651367,139.9327703125,126.50098092651368,153.1402703125C146.85998092651369,166.34777031250002,146.16298092651368,170.4353703125,154.87898092651366,183.3114703125Z" fill="url(#master_svg6_1_11431)" fill-opacity="1"/></g><g transform="matrix(0.9878683090209961,-0.1552940160036087,0.1552940160036087,0.9878683090209961,1.1770942432760876,-12.720651309030586)" filter="url(#master_svg7_131_57376/1_11650)"><path d="M140.88008099365234,145.8678807373047Q68.78308099365233,112.17288073730468,20.654080993652343,112.17288073730468C-27.475719006347653,112.17288073730468,-80.82791900634766,105.15088073730469,-80.82791900634766,96.2828807373047C-80.82791900634766,87.41588073730469,-54.22271900634766,-13.894119262695312,-6.093319006347656,-13.894119262695312C46.76708099365234,-5.078159262695312,94.06908099365234,31.22198073730469,110.72508099365234,67.23128073730469C127.38208099365235,103.24088073730469,132.16408099365233,132.99188073730468,140.88008099365234,145.8678807373047Z" fill="url(#master_svg8_1_11421)" fill-opacity="1"/></g><g><g style="opacity:0.30000001192092896;"><path d="M134,32.5Q134,56.7315,116.8657,73.8657Q99.7315,91,75.5,91Q51.2685,91,34.134299999999996,73.8657Q17,56.7315,17,32.5Q17,8.268500000000003,34.134299999999996,-8.8657Q51.2685,-26,75.5,-26L75.5,7Q64.9376,7,57.4688,14.468800000000002Q50,21.937600000000003,50,32.5Q50,43.0624,57.4688,50.5312Q64.9376,58,75.5,58Q86.0625,58,93.5312,50.5312Q101,43.0625,101,32.5L134,32.5Z" fill="url(#master_svg9_1_3910)" fill-opacity="1"/></g><g><ellipse cx="104.75" cy="3.25" rx="29.25" ry="29.25" fill="url(#master_svga_1_3913)" fill-opacity="1"/></g></g><g><rect x="0" y="165" width="375" height="111" rx="0" fill="url(#master_svgb_1_11439)" fill-opacity="1"/></g></g></g></g></svg>